<svg xmlns="http://www.w3.org/2000/svg" viewBox="0 0 63.465 43.856" height="165.754" width="239.867"><g color="#000" font-weight="400" font-family="sans-serif" white-space="normal" fill="#fff"><path d="M2.605 0C1.848-.007 1.113.317.656.826a2.601 2.601 0 0 0-.654 1.752c0 .612.198 1.245.654 1.754.457.51 1.192.834 1.95.826h58.253c.758.007 1.493-.316 1.95-.826.456-.51.654-1.142.654-1.754 0-.612-.198-1.242-.654-1.752-.457-.51-1.192-.833-1.95-.826zm-.023 2.578a1.29 1.29 0 0 0 .012 0H60.87a1.29 1.29 0 0 0 .012 0v.002a1.29 1.29 0 0 0-.012 0H2.594a1.29 1.29 0 0 0-.012 0v-.002zM2.605 19.35c-.757-.007-1.492.316-1.949.826a2.606 2.606 0 0 0-.654 1.754c0 .612.198 1.242.654 1.752.457.51 1.192.833 1.95.826h58.253c.758.007 1.493-.317 1.95-.826.456-.51.654-1.14.654-1.752 0-.612-.198-1.245-.654-1.754-.457-.51-1.192-.833-1.95-.826zm-.023 2.578a1.29 1.29 0 0 0 .012 0H60.87a1.29 1.29 0 0 0 .012 0v.002a1.29 1.29 0 0 0-.012 0H2.594a1.29 1.29 0 0 0-.012 0v-.002zM2.607 38.697c-.757-.008-1.494.317-1.95.827A2.602 2.602 0 0 0 0 41.276c0 .612.2 1.244.656 1.753.457.51 1.194.834 1.951.827h58.25c.758.008 1.495-.317 1.952-.827.456-.51.656-1.141.656-1.753 0-.613-.2-1.243-.656-1.752-.457-.51-1.194-.834-1.952-.827zm-.027 2.579a1.29 1.29 0 0 0 .014 0H60.87a1.29 1.29 0 0 0 .014 0v.002a1.29 1.29 0 0 0-.014 0H2.594a1.29 1.29 0 0 0-.014 0v-.002z" style="line-height:normal;font-variant-ligatures:normal;font-variant-position:normal;font-variant-caps:normal;font-variant-numeric:normal;font-variant-alternates:normal;font-feature-settings:normal;text-indent:0;text-align:start;text-decoration-line:none;text-decoration-style:solid;text-decoration-color:#000;text-transform:none;text-orientation:mixed;shape-padding:0;isolation:auto;mix-blend-mode:normal" overflow="visible"/></g></svg>